<svg width="119" height="95" viewBox="0 0 119 95" fill="none" xmlns="http://www.w3.org/2000/svg">
<path d="M37.205 23.32C42.581 23.32 47.3597 24.472 51.541 26.776C55.8077 29.08 59.1357 32.4933 61.525 37.016C63.9997 41.5387 65.237 47 65.237 53.4V95H50.773V55.576C50.773 49.2613 49.1943 44.44 46.037 41.112C42.8797 37.6987 38.5703 35.992 33.109 35.992C27.6477 35.992 23.2957 37.6987 20.053 41.112C16.8957 44.44 15.317 49.2613 15.317 55.576V95H0.725V0.279999H15.317V32.664C17.7917 29.6773 20.9063 27.3733 24.661 25.752C28.501 24.1307 32.6823 23.32 37.205 23.32ZM100.874 36.376V75.416C100.874 78.0613 101.471 79.9813 102.666 81.176C103.946 82.2853 106.079 82.84 109.066 82.84H118.026V95H106.506C99.9353 95 94.9007 93.464 91.402 90.392C87.9033 87.32 86.154 82.328 86.154 75.416V36.376H77.834V24.472H86.154V6.936H100.874V24.472H118.026V36.376H100.874Z" fill="#4E4FEB"/>
</svg>
